# xmcd
#
# Track frame offsets:
#	150
#	24110
#	52292
#	69192
#	89122
#	104145
#	135312
#	151890
#	171582
#	198845
#
# Disc length: 2909
#
# Revision: 1
# Processed by: cddbd v1.5.1PL0 Copyright (c) Steve Scherf et al.
# Submitted via: CDex 1.51
# Normalized: r0:TDELIM( - ),TSWAP
#
DISCID=880b5b0a
DTITLE=HU - Sampler Best of the Best 1013
DYEAR=1995
DGENRE=New Age
TTITLE0=David Lanz - A Whiter Shade of Pale
TTITLE1=Yanni - Santorini
TTITLE2=Raul Di Blasio - Volviendo a Casa
TTITLE3=Ottmat Liebert - 2 the Night
TTITLE4=Paul Winter - Icarus
TTITLE5=Art of Noise - Moments in Love
TTITLE6=Raul Di Blasio - Aguas de Invierno
TTITLE7=Ottmar Lieber - Barcelona Nights
TTITLE8=Yanni - Keys to Imagination
TTITLE9=Ray Lynch - Celestial Soda Pop
EXTD=YEAR: 1995
EXTT0=
EXTT1=
EXTT2=
EXTT3=
EXTT4=
EXTT5=
EXTT6=
EXTT7=
EXTT8=
EXTT9=
PLAYORDER=
